<svg xmlns="http://www.w3.org/2000/svg" viewBox="0 0 595.92 841.89"><defs><style>.cls-1{fill:#3768a9;}.cls-2{fill:#429b53;}.cls-3{fill:#d62a45;}.cls-4{fill:#f3a628;}</style></defs><g id="Capa_2" data-name="Capa 2"><g id="Capa_1-2" data-name="Capa 1"><path class="cls-1" d="M0,619.21V841.89H225.44c37.1-68,69.94-84.25,93.71-85.8,23-1.49,34.89,10.94,71.1,9.24,24.86-1.17,61.14-3.05,71.64-26.54,11.9-26.62-15.66-79.51-52.06-105.9-31.77-23-54.87-14.71-95.52-20.49-110.08-15.67-134.43-104.31-203.19-96.31C83.87,519.26,44.16,538.24,0,619.21Z"/><path class="cls-2" d="M1.94,618.27C10,638,50.73,619.43,98.69,644.63,161.18,677.47,155.91,742,201.27,751c39.75,7.82,52.51-40.05,106.45-44.17,73.64-5.64,117.63,78.38,145,62.58C483,751.9,448,638.64,443.22,623.09c-15.87-51.46-22.77-82.32-49.19-105.47-82.15-72-224.18-51.74-312.26,4C39.54,548.41-7.83,594.43,1.94,618.27Z"/><path class="cls-3" d="M.65,430.06V618.27c60-84.5,96.81-98,119.86-92.71,43.05,9.85,47.36,87.25,87.91,90.29,38.24,2.87,51.66-64.63,110.49-70.09,25.31-2.35,30.7,9.4,70.9,7.8,24.79-1,61-2.57,71.44-22.42,11.86-22.5-15.62-67.21-51.92-89.52-31.68-19.46-54.71-12.42-95.25-17.31-109.77-13.24-134-88.16-202.62-81.4C84.29,345.59,44.69,361.63.65,430.06Z"/><path class="cls-1" d="M153.11,339.92c-18.72,34.53-13.28,93.39,26,112.34,44,21.23,111.2-16.57,137.08,5.12,21.1,17.69-16.69,48.62,5.53,78.26,18,24,62,29.16,102.06,33.82,33.84,3.94,95.33,7.06,172.17-12.69V260.67C370.36,238,192.1,268,153.11,339.92Z"/><path class="cls-2" d="M.65,217.83V430.06c39.35-30,97.1-63.74,152.92-48.35,44.65,12.32,55.63,47.12,91,44.81,43.88-2.87,70.85-61,108.82-127.75,30.76-54.07,56.13-98.69,42.59-124.2C378.73,142.2,293.54,130.71.65,217.83Z"/><path class="cls-4" d="M355.22,217.4c-10.76,44.49,26.69,121.91,61.36,124.71,21.89,1.77,27.27-27.44,48.08-26.16,44.27,2.74,58.14,137.39,102.66,140.53,12.3.87,22.6-8.6,28.6-15.35V153.8C569.77,151.21,375.45,133.76,355.22,217.4Z"/><path class="cls-3" d="M1.91,261.2c14.09,43,120.92,57.33,195.27,17.12,33.89-18.33,34.42-33.58,60.95-39.19,70.49-14.91,108.08,84.09,165.62,73.38,49.07-9.14,95.46-94.84,82.12-154.14-20.66-91.77-188.56-139-317.25-93.11C80.89,103.67-14,212.54,1.91,261.2Z"/><path class="cls-2" d="M202.78,81.91c4.11-18.24,56.86-12.26,65-35.16C273,32.11,257.25,13.15,243.94,0h352V188.22a259.66,259.66,0,0,1-64.44,28c-22.94,6.36-34.38,9.61-46,7.88-48.81-7.3-43-84.16-94.3-106.3-47.4-20.46-82.08,32.37-143.53,6.81C223.19,114.39,199.83,95,202.78,81.91Z"/><path class="cls-1" d="M.65,231.25c8.77.52,24.67.52,41.29-6.06,60.9-24.07,45.19-102.21,91.32-123.07,51-23.06,96.48,56.88,183.42,40.86C370,133.16,415,91,410.18,68.26c-4-18.77-41.66-22.36-42.37-41.11C367.38,16,380.35,6.34,391.22,0H.65Z"/><path class="cls-4" d="M595.92,449.72C569.67,508.34,533.28,570,494.37,563.18,465.93,558.22,455,511,434.16,519c-24.15,9.38-41,82.53-32.85,143,6.89,50.86,32.63,100.84,61.48,105,27.85,4,38.1-37.59,64.17-35.75,17.06,1.2,41.18,21,69,110.61Z"/><path class="cls-3" d="M595.92,841.89V676.5c-53.38,2.31-76.11,18.52-86.73,34.07s-14,37.46-34.89,47c-9.66,4.44-18.85,4.3-24.94,4.14-24.3-.64-38.54-13.33-51.5-19.66-44.76-21.87-106.1,16.53-117.45,23.64C240,791.05,221.54,826.6,214.7,841.89Z"/></g></g></svg>