<svg xmlns="http://www.w3.org/2000/svg" viewBox="0 0 1859.74 1331.71"><defs><style>.cls-1,.cls-3{fill:#3969a7;}.cls-1{stroke:#3969a7;}.cls-1,.cls-2,.cls-5{stroke-miterlimit:10;}.cls-2,.cls-5{fill:none;stroke:#fff;}.cls-2{stroke-width:3px;}.cls-4{fill:#fff;}.cls-5{stroke-width:4px;}</style></defs><g id="Capa_2" data-name="Capa 2"><g id="Capa_1-2" data-name="Capa 1"><path class="cls-1" d="M.68,774.78c5.64-38.41,118.63-.69,154.74-81,23.43-52.13-8.82-102,13.23-129.12,34.94-42.89,167.12,18.64,229.93,139.69,6.15,11.85,63.6,125.2,29.81,189.76-32,61.1-124.67,38.34-197.78,20.4C112.71,885.52-4.7,811.43.68,774.78Z"/><path class="cls-2" d="M36.66,779.34c4.86-34,103.72-.39,135.16-71.37,20.39-46-7.9-90.24,11.34-114.14C213.63,556,329.3,610.61,384.45,717.75c5.39,10.49,55.82,110.81,26.4,167.83-27.86,54-108.94,33.68-172.9,17.68C134.81,877.46,32,811.74,36.66,779.34Z"/><path class="cls-2" d="M101.94,787.81c3.8-22.62,74.31-1.24,97.5-48.74,15-30.81-4.81-59.94,9.19-76,22.19-25.46,104.55,9.78,143.05,80.52,3.77,6.93,38.95,73.18,17.34,111.37-20.47,36.16-78.37,23.43-124,13.39C171.34,852.14,98.31,809.4,101.94,787.81Z"/><path class="cls-2" d="M159.65,794.41c2.5-15.57,50.12-.66,65.63-33.3,10.07-21.18-3.39-41.28,6-52.31,14.9-17.48,70.54,7,96.69,55.8,2.56,4.77,26.46,50.47,12,76.72-13.71,24.83-52.8,15.92-83.63,8.89C206.62,838.88,157.25,809.26,159.65,794.41Z"/><path class="cls-1" d="M1758.71,1000.74c-17,41.86-162.15-22.74-230.89,60-44.6,53.69-12.63,115.94-49.29,141.87-58.08,41.07-223.69-54-280.19-201.89-5.53-14.48-56.56-152.71,5.19-218.26,58.44-62.05,179.51-18.21,275,16.37C1632.52,854.6,1774.92,960.78,1758.71,1000.74Z"/><path class="cls-2" d="M1710.68,988.49c-14.84,37-141.72-20.11-201.81,53.09-39,47.49-11,102.55-43.08,125.48-50.76,36.33-195.51-47.74-244.89-178.57-4.84-12.8-49.44-135.06,4.53-193,51.08-54.88,156.9-16.1,240.36,14.48C1600.39,859.24,1724.85,953.16,1710.68,988.49Z"/><path class="cls-2" d="M1623.59,966.08c-10.66,24.57-101.77-13.34-144.91,35.22-28,31.5-7.93,68-30.94,83.24-36.45,24.1-140.39-31.66-175.85-118.46-3.47-8.49-35.5-89.6,3.25-128.07,36.68-36.4,112.67-10.68,172.6,9.61C1544.39,880.34,1633.77,942.64,1623.59,966.08Z"/><path class="cls-2" d="M1546.39,947.26c-7.18,16.92-68.59-9.19-97.68,24.26-18.86,21.7-5.34,46.87-20.85,57.35-24.57,16.6-94.63-21.82-118.53-81.61-2.34-5.85-23.93-61.73,2.19-88.22,24.73-25.08,75.94-7.36,116.34,6.61C1493,888.19,1553.25,931.11,1546.39,947.26Z"/><path class="cls-1" d="M1858.42,646.49c-11,27.28-104.93-14.82-149.41,39.11-28.86,35-8.17,75.56-31.9,92.45-37.58,26.76-144.74-35.17-181.3-131.56-3.58-9.44-36.6-99.52,3.35-142.23,37.82-40.43,116.16-11.87,177.95,10.66C1776.76,551.26,1868.91,620.45,1858.42,646.49Z"/><path class="cls-2" d="M1828.44,634.74c-9.6,24.13-91.71-13.11-130.59,34.59-25.22,30.95-7.14,66.83-27.87,81.77-32.85,23.68-126.52-31.1-158.47-116.36-3.13-8.34-32-88,2.93-125.8,33.06-35.76,101.53-10.49,155.54,9.44C1757.07,550.51,1837.61,611.71,1828.44,634.74Z"/><path class="cls-2" d="M1771,606.12c-6.9,16-65.86-8.7-93.78,23-18.11,20.53-5.13,44.33-20,54.24-23.58,15.71-90.84-20.63-113.79-77.19-2.25-5.54-23-58.39,2.11-83.46,23.73-23.72,72.9-7,111.68,6.26C1719.74,550.24,1777.57,590.84,1771,606.12Z"/><path class="cls-2" d="M1721,593.85c-4.65,11-44.39-6-63.21,15.81-12.21,14.14-3.46,30.54-13.49,37.37-15.9,10.82-61.24-14.21-76.7-53.18-1.52-3.81-15.49-40.22,1.42-57.49,16-16.34,49.14-4.8,75.28,4.31C1686.48,555.36,1725.47,583.33,1721,593.85Z"/><path class="cls-3" d="M133.09,321.71c5.68-73.43,60.47-114.46,63.68-116.78,38.45-27.81,60.7-13.91,131-26,54.82-9.39,107.74-32.61,153.7-67.43C530.13,74.71,572.83,24.14,629.44,7,652.18,0,678.57-.22,697,16.21,717.86,34.73,722.19,68.28,720.28,98c-1.65,25.49-7.26,45.35-11.44,56-8.73,22.15-30.42,64.08-123,123.36-76.3,48.83-92.51,40.18-128.19,79.43C425.63,392,434.09,404,399,447.35c-27.59,34.11-76.87,96-133.1,86.76-46.51-7.61-74.17-54.93-96.29-92.77C150.71,409,129.18,372.18,133.09,321.71Z"/><path class="cls-3" d="M135.59,321.71c2.3-28.63,12.72-55.94,29.21-79.37a162.41,162.41,0,0,1,32.14-34.43,3,3,0,0,1,.36-.28l.55-.41c2-1.43,4-2.8,6-4.11a91.66,91.66,0,0,1,14.79-7.82c9.26-3.79,19.11-5.62,29-6.53,11.89-1.08,23.85-1.3,35.77-2.09a426.33,426.33,0,0,0,49.48-6.09,351.2,351.2,0,0,0,101.6-35.93c31.44-16.85,59-38.73,85.86-62.07,25.47-22.15,50.88-45.26,80.9-61.18,26.79-14.21,65.22-26.32,91.86-5.2,12.16,9.63,18.72,24.27,22,39.09,3.59,16.16,3.62,33,2.07,49.44-2,21.11-6.82,42.35-16.46,61.06C693,181,682.35,194.58,670.64,207c-20.93,22.15-45.33,40.89-70.49,57.94A648.73,648.73,0,0,1,518,312.34C501.52,320.28,485.15,328,471.16,340a182.12,182.12,0,0,0-25.53,27.2c-7.2,9.34-12.88,19.45-18.05,30C422,408.65,416,419.81,408.71,430.32c-8.24,11.88-17.61,23.05-26.95,34.08-18.53,21.87-39.14,43.6-64.71,57.23-12.27,6.54-25.85,10.91-39.84,10.9-14.42,0-28.46-4.71-40.62-12.32-25-15.66-41.91-41.66-56.78-66.47-15.41-25.72-31.52-51.89-39.43-81.07a151.78,151.78,0,0,1-4.79-51c.24-3.21-4.77-3.2-5,0a155.89,155.89,0,0,0,5.21,53.17c4.23,15.27,10.69,29.83,18.11,43.8,6.89,13,14.43,25.68,22,38.28,7.8,13,16,25.75,25.57,37.54,18.3,22.65,43.14,42,73.4,43,29.36,1,55.82-15.86,77-34.64a327.42,327.42,0,0,0,30.51-31.48c9.34-10.84,18.58-21.92,27.05-33.46a232.18,232.18,0,0,0,21-35.23c5.14-10.48,10.42-20.74,17.37-30.16,13-17.66,29.2-33.17,48.46-43.8,8.52-4.69,17.38-8.74,26.13-13,12.18-5.89,24.18-12.11,35.94-18.82,31.59-18,62.23-38.48,90-62.06,17.37-14.77,33.77-31.08,46.76-49.9a144.11,144.11,0,0,0,18.53-36.89,202.26,202.26,0,0,0,9.06-48.35c1.18-16.38.62-33.2-3.49-49.18-3.78-14.73-11-29-23.19-38.44C683.14,2.1,666.54-1.06,650.58.3,617.37,3.11,587,21.93,561.23,41.78c-27.63,21.27-52.47,45.9-80.22,67a359.86,359.86,0,0,1-98.26,53.27c-33.38,11.75-68.24,17.76-103.51,19.86-22,1.3-44.68.75-65.2,9.93-13.3,5.95-24.65,15-34.76,25.31a176.12,176.12,0,0,0-38.71,59.95,160.48,160.48,0,0,0-10,44.58C130.33,324.92,135.33,324.9,135.59,321.71Z"/><path class="cls-4" d="M185.44,311.29c1.89-19.51,10.95-37.5,23.86-52.05a109.32,109.32,0,0,1,23.58-20.46c12.25-7.61,25.62-11,39.9-12,8.66-.59,17.33-.75,26-1.23,12.19-.68,24.35-1.87,36.42-3.66a308.4,308.4,0,0,0,76-21.55c23.54-10.07,45-23.42,65.75-38.34,19.63-14.13,39-29,60.8-39.7,20.51-10,46.81-18.55,69.25-9.86,21.92,8.49,27.25,33,25.86,54.08-1,15.12-4.73,30.42-12.6,43.48-5.64,9.35-13.06,17.42-21.12,24.79-14.76,13.5-31.63,24.63-48.83,34.74a508.33,508.33,0,0,1-64.57,32.27c-12.58,5.18-25.69,9.6-37.3,16.84a114.19,114.19,0,0,0-35.54,34.67c-4.18,6.55-7.8,13.42-12.35,19.75-6.23,8.66-13.73,16.28-21.2,23.86C351,425.67,312,457.84,269.14,440.7c-19.45-7.79-34-24-46.28-40.46-6-8-11.74-16.24-17.29-24.56-6.2-9.31-11.92-19.06-15.67-29.63a82,82,0,0,1-4.46-34.76c.28-3.2-4.72-3.18-5,0a85.55,85.55,0,0,0,4.75,36.41c3.87,10.77,9.57,20.73,15.89,30.23q8.56,12.88,17.83,25.32a177.26,177.26,0,0,0,20.88,24c16.15,15,37.08,25,59.55,23.15,22.14-1.78,42-13.54,58.89-27.22a284.45,284.45,0,0,0,22.51-20.57c7.53-7.56,15.07-15.17,21.58-23.64,5.17-6.71,9.26-14,13.68-21.21a102.4,102.4,0,0,1,17.84-21.43,115.23,115.23,0,0,1,34.24-22c17.13-7.22,34.36-13.91,51-22.21,22.74-11.32,45.11-24,65.55-39.1,11.91-8.81,23.41-18.56,32.66-30.2a88,88,0,0,0,14-24.49A113.69,113.69,0,0,0,638,163.66c.42-11-.83-22.2-5.19-32.34a43.11,43.11,0,0,0-22.61-22.9c-11.1-4.75-23.49-5.11-35.3-3.44-24.48,3.45-47.1,15.73-67.4,29.25C486.61,148.11,467.15,164,445.7,177a298.31,298.31,0,0,1-74.15,32c-24.83,7-50.37,10.42-76.09,11.69-16,.79-32.55.32-47.88,5.54a89.09,89.09,0,0,0-28.08,16.16c-12.86,10.63-23.92,23.94-31,39.13a91.21,91.21,0,0,0-8.1,29.71C180.13,314.5,185.13,314.47,185.44,311.29Z"/><path class="cls-5" d="M228.66,318.11c1-31.45,33.28-52.25,35.17-53.43,22.69-14.18,36.85-9.69,79.7-19.19,33.39-7.4,65.13-20.54,92.21-38.16,28.62-18.63,53.16-42.71,87.38-53.53,13.75-4.35,30-6.11,41.88-.31,13.44,6.54,17.25,20.48,17.08,33.19A61.92,61.92,0,0,1,577,211.09c-4.6,9.92-16.51,29-71.43,59.92-45.24,25.45-55.51,22.8-76.11,41.65-18.47,16.9-12.86,21.45-33,42-15.8,16.17-44,45.44-78.88,45.06-28.86-.31-47.48-18.62-62.38-33.26C242.49,354,228,339.73,228.66,318.11Z"/><path class="cls-5" d="M268.91,306.11c.9-19.67,23.82-32.93,25.16-33.69,16.11-9.05,26.07-6.36,56.37-12.65a218.69,218.69,0,0,0,65.32-24.61c20.32-11.89,37.79-27.14,62-34.19,9.73-2.83,21.19-4.06,29.56-.53,9.44,4,12,12.65,11.84,20.6a35.6,35.6,0,0,1-3.78,15.3c-3.31,6.24-11.84,18.28-50.8,38-32.09,16.28-39.32,14.71-54,26.66-13.14,10.72-9.21,13.52-23.54,26.54-11.25,10.24-31.34,28.76-56,28.82-20.36,0-33.38-11.25-43.79-20.28C278.43,328.41,268.29,319.62,268.91,306.11Z"/><path class="cls-3" d="M531.34,1146c19.88-3.18,45.73-5.78,63.82,9.33,13.06,10.91,15.32,26.57,18.45,34.57,19.34,49.43,44.77,100.67,91,126.62s117.69,11.56,132.87-39.3c14.68-49.24-28-103-10.93-151.45,7.23-20.46,23.95-35.79,37.73-52.54,40.51-49.21,57.44-117,44.84-179.53S854.63,775.3,798.22,745.67c-23.47-12.33-50.05-20.35-76.41-17.48-55.57,6.06-94.6,56.91-121,106.21s-49.9,104.48-97.4,134c-44.22,27.47-99.93,26.56-149.41,42.73-30,9.81-59.2,27.42-74,55.31-16.53,31-12.46,69.3-1,102.57,2.37,6.88,5,14.54,11.85,20.11,7.91,6.46,17.14,7.21,20.48,7.48C344.42,1199.28,454.08,1158.41,531.34,1146Z"/><path class="cls-3" d="M532,1148.44c16.33-2.6,34.12-4.47,49.86,1.86a41.84,41.84,0,0,1,20.42,17.32c3.67,6.16,5.61,13,7.78,19.72,2.43,7.59,5.77,15,8.9,22.31,3.52,8.26,7.24,16.44,11.27,24.47a263,263,0,0,0,27.63,44.54c19.46,24.86,45.8,45.74,77.52,51.3,26.77,4.69,56.71.15,78.9-16.28a70.13,70.13,0,0,0,23.77-30.43c6-15.27,5.9-32,3.39-48-2.71-17.3-8.09-34-12-51.07-3.81-16.47-6.48-33.86-2.53-50.57,4.44-18.79,17.26-33.41,29.69-47.53,12.21-13.87,23.29-28.34,32.13-44.61a223.93,223.93,0,0,0,27-105,214,214,0,0,0-25.35-101.87A223.2,223.2,0,0,0,823,757.92C792.07,736,753.14,720,714.74,726.69c-33.35,5.82-60.8,28.14-81.68,53.74-22.19,27.2-37.37,58.58-53.68,89.42s-34.4,62.27-61.58,85c-29.68,24.84-67.46,32.95-104.53,40-36.25,6.86-73.92,13.74-104.46,35.85-14.06,10.18-26.13,23.3-33.38,39.19-7.84,17.16-10.09,36.26-8.62,54.94a171.44,171.44,0,0,0,4.8,28.55c2.17,8.55,4.67,17.31,8.35,25.35,6.31,13.75,19.81,20.45,34.51,20.51,10.06,0,20.22-2.07,30-4.16,13.93-3,27.72-6.61,41.47-10.34,33.07-9,65.94-18.61,99.25-26.62,15.49-3.73,31.07-7.11,46.8-9.65,3.16-.51,1.82-5.33-1.33-4.82-32.81,5.29-65,14-97,22.75-29.5,8.1-58.89,17-88.8,23.5-9.6,2.09-19.46,4.18-29.33,4.33a41,41,0,0,1-15.13-2.42c-9.14-3.45-14.46-10.8-17.74-19.68-12.68-34.46-18-76.24,2.08-109,18.86-30.73,54.08-46.19,87.7-54.65,36.3-9.14,74.39-12,109.28-26.32A150.41,150.41,0,0,0,526,954.36c12.49-11.34,23.09-24.64,32.46-38.63C577.75,886.89,591.62,855,608.86,825c16.63-29,37.3-57.62,65.51-76.36,13.41-8.91,28.45-15.22,44.43-17.54,20.17-2.92,40.7,1,59.56,8.26,32.86,12.67,61.9,35.17,84.11,62.32a214.35,214.35,0,0,1,44,91.35c7.39,35.37,5.09,72.54-5.62,107a215.38,215.38,0,0,1-22.51,49.42c-9.8,15.82-22.25,29.16-34.14,43.35-11.35,13.56-20.85,28.41-23.36,46.24-2.31,16.38.54,32.9,4.34,48.83,7.38,30.92,21.34,66.25,6.72,97.22-11.51,24.39-37.54,37.72-63.4,40.86a108.14,108.14,0,0,1-41.19-2.87c-14.85-4-28.27-11.73-40.15-21.4-26.91-21.89-44.94-52.57-59.11-83.76-3.62-8-7-16-10.22-24.11-2.46-6.18-4.17-12.58-6.53-18.79-5.93-15.6-17.55-27-33.81-31.41-15.26-4.17-31.4-2.4-46.78,0C527.51,1144.13,528.85,1148.94,532,1148.44Z"/><path class="cls-4" d="M551.51,1116.78c13.43-2.17,27.9-3.94,41.09.35a32.22,32.22,0,0,1,17.17,12.48c3.1,4.68,4.6,9.93,6.43,15.16,2,5.72,4.69,11.28,7.22,16.77,2.89,6.25,6,12.41,9.28,18.44a176.84,176.84,0,0,0,23.37,33.47c16.94,18.71,39,32.18,64.31,35.09,21.88,2.52,46-1.69,64.31-14.52,8.4-5.9,15.43-13.72,19.49-23.21,5-11.8,5-24.7,2.78-37.14-4.46-25.47-19.16-53.29-7.82-78.94,6-13.67,17.72-23.86,27.92-34.39a173,173,0,0,0,26.71-35.46c13.85-24.61,21.41-52.94,20.43-81.24a142.85,142.85,0,0,0-24.82-74.95,165.26,165.26,0,0,0-60.44-53.48c-27.46-14.28-59.46-21.53-89.71-12.27-26,7.95-47.41,26.17-64.46,46.81-17.52,21.21-30.25,45.55-44.88,68.71-15,23.74-32.51,46.6-56.83,61.42-26.65,16.23-58.15,20.91-88.28,26.68-29.15,5.59-59.37,12.53-83.38,31-11,8.48-20.07,19.25-25.18,32.29-5.35,13.66-5.94,28.67-3.73,43.05a123.93,123.93,0,0,0,5.53,21.88c2.15,6.16,4.5,12.51,9.68,16.79,7.4,6.11,17.4,7.18,26.63,6.34a202.69,202.69,0,0,0,26.1-4.56c11.46-2.58,22.83-5.53,34.19-8.52,26.57-7,53.05-14.37,79.82-20.57,12.28-2.85,24.63-5.45,37.07-7.49,2.38-.39,1.37-4-1-3.62-26,4.26-51.6,10.79-77.06,17.48-24,6.32-48,13.15-72.23,18.69a215,215,0,0,1-25.89,4.74c-9.14.94-19.7.38-26.56-6.57-4.8-4.86-6.81-12.28-8.76-18.65a114,114,0,0,1-4.51-21.6c-1.52-14.75.36-30,7.46-43.13,13.8-25.62,42.88-39.06,69.69-46.5,29.3-8.14,59.88-10.79,88.95-19.85,13.86-4.33,27.26-10.22,39.25-18.49a151,151,0,0,0,29.67-27.4c17.47-20.75,30.41-44.71,44.53-67.73,14-22.74,30.58-44.73,52.25-60.65a109.64,109.64,0,0,1,35.58-17.72,99,99,0,0,1,46.32-1.09c28.2,5.8,54.8,20.85,75.53,40.67,19,18.11,33.49,40.93,40.69,66.21,7.58,26.62,6.43,55.11-1.87,81.42a159.52,159.52,0,0,1-18.33,38.77c-8.1,12.52-18.1,23.13-28.5,33.73-9.68,9.86-19.38,20.5-23.31,34.07-3.59,12.36-2.09,25.39.71,37.75,5.44,24,17.65,51.14,5.19,75-10,19.13-31.66,28.86-52.08,32a93.71,93.71,0,0,1-66.76-14.54c-22.62-15.13-38.17-38.25-50.06-62.29-2.92-5.9-5.64-11.89-8.24-17.94-2.06-4.79-3.46-9.77-5.42-14.58-5-12.28-15.23-20.08-28.13-22.79-12.57-2.65-25.58-1.07-38.11,1C548.14,1113.55,549.15,1117.16,551.51,1116.78Z"/><path class="cls-5" d="M630.45,1092.75c41.92,27.68,19.75,90.45,60.28,108.27,26.82,11.8,68.25-2.46,80-26.72,15-30.82-24.86-63.37-7.19-97.66,8.54-16.57,19.49-12.19,37.72-32,19.49-21.11,37.26-58.79,28.76-100.61-7.07-34.76-31.93-65.6-65.81-81.63-14.1-6.68-30.11-10.91-46.1-9.07-33.69,3.88-57.78,32.61-74.23,60.37-34,57.44-37.54,60-60.16,75.66-21.1,14.58-29.17,9.66-90.84,25.19-68.56,17.28-103.06,26.44-113.94,52.2-9,21.26-1.78,51,14.61,60.49,17,9.84,37.62-4.86,70.39-18.28C484.83,1100.46,581.89,1060.71,630.45,1092.75Z"/><path class="cls-5" d="M707.1,890.45c27.28-9,61.59,2.16,77.84,24.13,18,24.31,9.91,56.55,7.4,65.08-11.94,40.59-43.46,39-55.07,75.23-13.82,43.13,21.41,74.87,2.35,95.4-10.53,11.35-31.85,13-44.9,6.21-6.24-3.27-10.59-8.5-20.76-31.14-15.54-34.62-13.26-40-19.2-48.1-20.19-27.58-82.58-14.93-112.92-8.77-80.88,16.4-121.92,52.39-140.67,35.43-8.23-7.44-9.44-22.63-5.15-33.31,10-24.8,49.05-24.12,156-50.61,31.32-7.76,47-11.64,53.41-15.14C666.78,971.54,659.64,906.05,707.1,890.45Z"/><path class="cls-1" d="M1731.18,331.28c-23.37,32.58-143.12-52-221.28,5.35-50.71,37.21-33.44,97.12-71.67,112.06-60.58,23.66-193.15-91.18-216.52-229.63-2.29-13.55-22.51-142.57,46-186.54,64.87-41.62,166.64,20.3,246.91,69.13C1644.11,180.41,1753.48,300.18,1731.18,331.28Z"/><path class="cls-2" d="M1692.47,306.51c-20.51,28.85-125-45.67-193.52,5.21-44.43,33-29.46,85.93-62.93,99.22-53,21.06-168.71-80.18-188.84-202.51-2-12-19.38-126,40.67-165C1344.68,6.49,1433.54,61,1503.63,104,1616.66,173.34,1712,279,1692.47,306.51Z"/><path class="cls-2" d="M1620.06,251c-14.34,19-90-31.85-138.42,1.25-31.41,21.47-20.09,56.88-43.88,65.35-37.71,13.41-121.65-55.33-137.46-137-1.54-8-15.31-84.12,27.21-109.42C1367.75,47.19,1432,84.51,1482.61,114,1564.28,161.42,1633.75,232.87,1620.06,251Z"/><path class="cls-2" d="M1553.44,219.34c-9.74,13.11-60.63-21.63-93.4,1.29-21.26,14.88-13.74,39.22-29.82,45.12-25.48,9.34-81.9-37.7-92.32-93.88-1-5.5-10.06-57.84,18.7-75.39,27.23-16.6,70.44,8.89,104.52,29C1516.08,157.88,1562.73,206.83,1553.44,219.34Z"/><path class="cls-3" d="M1087.63,283.09c-1.51,58.05-47.91,93.25-50.63,95.25-32.61,23.93-52.91,14.2-114.43,27.45a333.77,333.77,0,0,0-132.45,61.27C749,498.62,713.7,540.68,664.56,557.24c-19.75,6.65-43,8.27-60.11-3.66C585.19,540.14,579.76,514,580,490.49c.23-20.13,4.24-36.05,7.42-44.62,6.64-17.89,23.79-52,102.69-103.61,65-42.49,79.74-36.56,109.36-69.34,26.55-29.39,18.52-38.36,47.43-74.37,22.73-28.31,63.27-79.59,113.34-75.37,41.42,3.49,68.08,39.21,89.42,67.79C1067.9,215.37,1088.66,243.19,1087.63,283.09Z"/><path class="cls-3" d="M1085.13,283.09c-.71,23.88-9.44,46.54-23.37,65.8a141.61,141.61,0,0,1-16.22,18.72c-2,2-4.1,3.87-6.25,5.7-.71.6-1.43,1.2-2.16,1.79l-.76.6c-.45.36.39-.28-.24.19A89.48,89.48,0,0,1,1014.72,388a109.91,109.91,0,0,1-24.87,5.72c-10.36,1.33-20.77,2.18-31.13,3.48a414.2,414.2,0,0,0-42.4,7.48,336.41,336.41,0,0,0-85.46,32.84c-26.1,14.36-49.29,32.52-71.65,52.09-21.25,18.6-42.27,37.95-66.82,52.18-12,7-25,12.83-38.62,16s-28.72,3.59-41.56-2.51c-25-11.87-30.37-42.68-29.62-67.64.53-17.58,4-35.77,11.64-51.1,6.16-12.3,14.67-23.27,24-33.29,17-18.19,36.75-33.7,57.11-47.91a586.1,586.1,0,0,1,70.55-42.38c13.91-7,28.06-13.63,40.21-23.57A137.87,137.87,0,0,0,823,242.65c4.35-9.05,8.63-18,14.13-26.46,6.61-10.14,14.37-19.51,22.09-28.82,15.08-18.18,31.64-36,51.94-48.43,10.27-6.28,21.54-11.06,33.51-12.82a72.38,72.38,0,0,1,36.84,4.6c23.46,9.22,41,29,56.14,48.42s31.46,39.85,40.4,63.19a107.27,107.27,0,0,1,7.1,40.76c-.07,3.22,4.93,3.22,5,0a110.78,110.78,0,0,0-7.56-42.8c-4.82-12.35-11.57-23.77-19.11-34.64-7-10-14.38-19.83-21.87-29.49-7.81-10.08-16.06-19.9-25.45-28.57C997.3,130.19,973,118,946.7,120.86c-24.78,2.74-46.29,17.31-64.11,33.92A298.16,298.16,0,0,0,858,181c-7.78,9.24-15.58,18.61-22.46,28.54a194.92,194.92,0,0,0-15.73,28.11,129.85,129.85,0,0,1-15.66,25.94C793,277.53,780,289.21,764.38,297.81c-7.45,4.09-15.11,7.76-22.68,11.61q-15.87,8.08-31.2,17.16c-26.26,15.64-51.81,33.07-74.94,53.12-14,12.11-27.25,25.43-37.7,40.78a109.74,109.74,0,0,0-14.51,29.79A145.54,145.54,0,0,0,577.52,492c0,13,1.6,26.46,6.5,38.63s13.12,22.71,25,28.58c12.78,6.33,27.5,6.77,41.33,4.32,28-5,53.19-21.25,75.16-38.6,22.93-18.09,43.71-38.78,67-56.48a331.79,331.79,0,0,1,81.88-45.64c28.35-10.88,58.06-17.51,88.18-21.08,18.72-2.22,38.42-2.59,56.06-9.92,12-5,22.46-12.6,31.64-21.72a139.89,139.89,0,0,0,32.66-49.74,116.09,116.09,0,0,0,7.28-37.22C1090.22,279.87,1085.22,279.87,1085.13,283.09Z"/><path class="cls-4" d="M1041.62,294c-.78,16.26-8.58,31.08-19.37,43a91.65,91.65,0,0,1-19.11,16.42c-11,6.88-23,10.08-35.8,11.54-18.07,2.07-36.1,3.6-54,7.12A298.18,298.18,0,0,0,849,392.44c-19.83,8.87-38.11,20.23-55.65,33-16.7,12.14-33.06,24.95-51.38,34.61a135.91,135.91,0,0,1-28.75,11.45c-10,2.62-20.88,3.9-31.11,1.7-9.09-2-17.08-6.95-21.88-15-4.45-7.49-5.94-16.39-6-25,0-12.53,2.7-25.31,9.19-36.11,4.64-7.73,10.67-14.21,17.45-20.43,12.51-11.46,26.75-21,41.24-29.72a479.63,479.63,0,0,1,55.1-28.66c10.57-4.63,21.56-8.64,31.4-14.75,11.67-7.25,22.53-17.21,30-28.74,3.53-5.43,6.43-11.23,10.13-16.55,5-7.15,11.05-13.42,17.13-19.65,24.13-24.73,55.82-51,92.91-42,17.7,4.3,32.06,15.83,44.43,28.73,5.77,6,11.33,12.28,16.77,18.61,6,7,11.66,14.38,15.74,22.69a57,57,0,0,1,5.87,27.39c-.12,3.22,4.88,3.21,5,0a62.09,62.09,0,0,0-6.3-29.4c-4.11-8.56-9.92-16.17-16-23.37-11.44-13.43-23.35-27.19-37.89-37.33-16-11.15-35.37-16.43-54.73-13.11-18.59,3.19-35.13,13.61-49.38,25.53-6.31,5.28-12.26,11-18,16.82-6.34,6.44-12.66,12.91-18.06,20.18-4.08,5.5-7.24,11.52-10.84,17.33a85.29,85.29,0,0,1-15.64,18.16,104.58,104.58,0,0,1-28.43,18c-14.74,6.53-29.53,12.74-43.85,20.2-19,9.93-37.78,20.82-55,33.71-10,7.47-19.65,15.65-27.43,25.44a69,69,0,0,0-11.28,19.77,80.9,80.9,0,0,0-4.43,29.92c.34,8.95,2.3,18.14,7.14,25.78,11.62,18.3,35,19.86,54.32,15.63,20.93-4.59,40-15.46,57.5-27.5s33.79-25.39,51.82-36.44A281.25,281.25,0,0,1,882.7,385a335.87,335.87,0,0,1,64.73-13.06c13.88-1.49,28.3-1.87,41.65-6.36a80.42,80.42,0,0,0,24.93-14c11-8.87,20.59-20,26.48-32.88a66.89,66.89,0,0,0,6.13-24.73C1046.78,290.74,1041.78,290.74,1041.62,294Z"/><path class="cls-5" d="M1003.44,291c.63,24.79-26.87,42.88-28.49,43.91-19.35,12.36-32.06,9.59-69.43,19.36C876.4,361.92,849,374,826,389.27c-24.38,16.18-44.88,36.44-74.57,46.78-11.93,4.16-26.16,6.41-37,2.49-12.17-4.42-16.2-15.18-16.66-25.18a44.37,44.37,0,0,1,3.35-19.47c3.6-8.05,13.19-23.72,60.19-51C800,320.49,809.21,322,826.5,306.1c15.49-14.29,10.32-17.56,27.08-34.82,13.18-13.56,36.66-38.09,67.48-39.66,25.49-1.3,42.8,12.09,56.64,22.81C989.52,263.58,1003,274,1003.44,291Z"/><path class="cls-5" d="M968.49,302.64c.14,15.51-19.45,27.18-20.6,27.84-13.79,8-22.71,6.4-49.15,13a208.87,208.87,0,0,0-56.48,22.86c-17.37,10.44-32.06,23.37-53.1,30.21-8.45,2.75-18.51,4.33-26.06,2-8.52-2.62-11.23-9.31-11.44-15.57a25.73,25.73,0,0,1,2.6-12.23c2.63-5.09,9.58-15,43-32.64,27.55-14.53,34-13.68,46.38-23.87,11.09-9.13,7.48-11.12,19.5-22.13,9.45-8.65,26.29-24.3,48-25.66,18-1.12,30,7.05,39.63,13.6C959,285.61,968.39,292,968.49,302.64Z"/></g></g></svg>