<svg xmlns="http://www.w3.org/2000/svg" viewBox="0 0 646.11 467"><defs><style>.cls-1{fill:#469a56;}.cls-2{fill:#d52d49;}.cls-3{fill:#f1a539;}.cls-4,.cls-7,.cls-8{fill:#3969a7;}.cls-5{fill:#d42d49;}.cls-6{fill:none;stroke:#f1a539;}.cls-6,.cls-7,.cls-8{stroke-miterlimit:10;}.cls-6,.cls-7{stroke-width:5px;}.cls-7,.cls-8{stroke:#1d1d1b;}.cls-8{stroke-width:4px;}</style></defs><g id="Capa_2" data-name="Capa 2"><g id="Capa_1-2" data-name="Capa 1"><ellipse class="cls-1" cx="205.14" cy="174.43" rx="170.25" ry="174.43"/><ellipse class="cls-2" cx="453.37" cy="75.9" rx="74.08" ry="75.9"/><ellipse class="cls-3" cx="453.37" cy="376.13" rx="88.7" ry="90.88"/><ellipse class="cls-1" cx="581.24" cy="224.98" rx="64.86" ry="66.46"/><ellipse class="cls-4" cx="357.51" cy="410.8" rx="42.52" ry="43.57"/><ellipse class="cls-4" cx="523.24" cy="196.03" rx="28.26" ry="28.95"/><ellipse class="cls-5" cx="88.7" cy="348.87" rx="88.7" ry="90.88"/><path class="cls-6" d="M532.39,116.63,534,251.16"/><path class="cls-6" d="M512.77,244.59l21.08-22.17"/><path class="cls-6" d="M549.94,248.16l-16.1-26"/><path class="cls-7" d="M162.37,169.33q2.73,94.71,5.45,189.43a355.79,355.79,0,0,0,309.5-1.24l-5.39-197.83-125,81.09Z"/><path class="cls-8" d="M76.18,136,346.89,240.78,552.47,107.46,295,25Z"/></g></g></svg>