<svg xmlns="http://www.w3.org/2000/svg" viewBox="0 0 405.36 254.45"><defs><style>.cls-1,.cls-6{fill:#3969a7;}.cls-2,.cls-8{fill:#f1a539;}.cls-3,.cls-7{fill:#469a56;}.cls-4,.cls-5{fill:#d42d49;}.cls-5,.cls-6,.cls-7,.cls-8{stroke:#1d1d1b;stroke-miterlimit:10;stroke-width:3px;}</style></defs><g id="Capa_2" data-name="Capa 2"><g id="Capa_1-2" data-name="Capa 1"><circle class="cls-1" cx="231.29" cy="238.9" r="15.55"/><circle class="cls-2" cx="27.88" cy="109.63" r="27.88"/><circle class="cls-3" cx="356.56" cy="172.7" r="48.8"/><circle class="cls-2" cx="278.23" cy="35.19" r="27.64"/><circle class="cls-1" cx="342.97" cy="208.49" r="23.4"/><circle class="cls-1" cx="299.68" cy="15.55" r="15.55"/><circle class="cls-4" cx="70.53" cy="148.9" r="48.8"/><path class="cls-5" d="M355.53,210.9c-3.88,9.29-20.45,9.3-53.6,9.33-33.43,0-50.15,0-54.06-9.33-6.7-16,20.09-61,53.83-61S362.22,194.88,355.53,210.9Z"/><ellipse class="cls-6" cx="93.12" cy="102.6" rx="35.14" ry="37.13"/><path class="cls-6" d="M143.64,213c-4.23,9.13-20.79,8.5-53.91,7.25C56.32,219,39.62,218.32,36.07,208.8,30,192.52,58.5,148.67,92.21,150S151,197.21,143.64,213Z"/><ellipse class="cls-7" cx="200.23" cy="62.83" rx="50.97" ry="53.52"/><path class="cls-7" d="M275,209.91c-5.62,13.38-29.66,13.4-77.73,13.44-48.5,0-72.75.06-78.42-13.44C109.15,186.79,148,122.05,197,122.05S284.74,186.81,275,209.91Z"/><ellipse class="cls-5" cx="303.33" cy="102.6" rx="35.14" ry="37.13"/><polygon class="cls-8" points="200.23 143.88 216.78 178.78 253.79 184.38 227.01 211.54 233.33 249.9 200.23 231.79 167.13 249.9 173.45 211.54 146.67 184.38 183.68 178.78 200.23 143.88"/></g></g></svg>