<svg xmlns="http://www.w3.org/2000/svg" viewBox="0 0 496.12 375.39"><defs><style>.cls-1{fill:#469a56;}.cls-2{fill:#3969a7;}.cls-3,.cls-5{fill:#f1a539;}.cls-4{fill:#d42d49;}.cls-5,.cls-6,.cls-7{stroke:#1d1d1b;stroke-miterlimit:10;stroke-width:3px;}.cls-6{fill:#396aa8;}.cls-7{fill:#d52d49;}</style></defs><g id="Capa_2" data-name="Capa 2"><g id="Capa_1-2" data-name="Capa 1"><ellipse class="cls-1" cx="157.52" cy="140.22" rx="130.73" ry="140.22"/><ellipse class="cls-2" cx="354.24" cy="72.62" rx="50.77" ry="49.41"/><ellipse class="cls-3" cx="348.13" cy="302.34" rx="68.11" ry="73.05"/><ellipse class="cls-1" cx="446.31" cy="180.85" rx="49.81" ry="53.42"/><ellipse class="cls-2" cx="274.51" cy="330.22" rx="32.65" ry="35.02"/><ellipse class="cls-2" cx="401.78" cy="157.57" rx="21.7" ry="23.27"/><ellipse class="cls-4" cx="68.11" cy="280.43" rx="68.11" ry="73.05"/><path class="cls-5" d="M128.75,212.83c15.83,19,85.63,101.58,117.28,103.41,4.42.26,17.74,1,21.43-5.57,2.81-5-.76-13-1.23-14.09-2.63-5.89-7-9.19-6.63-9.59.64-.68,10.43,12.13,21.43,11.14a18.2,18.2,0,0,0,15-12.54,16.37,16.37,0,0,0-.34-9.67c-1.87-5.2-6.27-8.25-6.09-8.43s4.3,5.33,10.72,7a17.24,17.24,0,0,0,14.47-3.17c.62-.48,6.84-5.48,6.14-11.71-.64-5.64-6.63-9.26-6.14-9.81s6,5.67,12.67,5.29c5.08-.29,8.61-4.78,10.13-6.7,5.15-6.55,4.63-14.19,4.37-16.61l-50.54-51-28.7-28.71c-9.1-8.26-19.86-9.86-25.64-5.23-1.13.91-3.34,3.07-4.42,7.7q-7,12.54-14,25.08a33.1,33.1,0,0,0-5.24,1.74c-1.85.79-2.69,1.34-3.5,1.73-3.31,1.57-6.36.4-10.87-.39-9-1.57-11.21.55-12.34-1.16-2.19-3.29,5.88-11.42,17-28.41,12.6-19.24,11.18-22.41,10.5-23.29-1.73-2.2-7.69-1.5-19.54,0-7,.89-13.52,2.06-15.2,2.47C166.5,135.48,144.65,166.53,128.75,212.83Z"/><path class="cls-5" d="M229.83,113.67c-4.38,1.68-7,3.55-12.1,7.25-24.61,17.78-44.3,49.09-35.36,62.52a14,14,0,0,0,5.29,4.53c12.63,6.86,30.14-5.49,31.25-6.29,11.21-8.1,14.72-19.75,15.79-24.18a14.77,14.77,0,0,1,13.1-9.14c7.76-.25,12.24,5.89,12.53,6.31a166.38,166.38,0,0,0,25,36.36A169.91,169.91,0,0,0,342,231.74a50.51,50.51,0,0,0,16.41-16.41c18.55-30.83-1.68-81.48-31.71-93.46-12.7-5.07-13.06,2.4-39.7-1.65C260.66,116.21,247.53,106.88,229.83,113.67Z"/><path class="cls-5" d="M134.19,238.72c-.45,3-1.6,10.73,3.16,14.94,5.05,4.48,13.57,2.12,16.45,1.32,8.49-2.36,13.32-8,21.18-17.14,5-5.85,7.54-8.85,7.44-12.08-.24-7.62-10.73-15-20.28-15.38C147.44,209.83,136.08,226,134.19,238.72Z"/><path class="cls-5" d="M150.83,256.64c-.45,3-1.6,10.73,3.15,14.94,5.06,4.48,13.58,2.11,16.46,1.32,8.49-2.36,13.32-8,21.18-17.14,5-5.86,7.54-8.85,7.44-12.09-.24-7.62-10.73-15-20.29-15.38C164.08,227.75,152.72,244,150.83,256.64Z"/><path class="cls-5" d="M168.59,274.55c-.45,3-1.6,10.74,3.16,14.95,5.05,4.47,13.57,2.11,16.45,1.31,8.49-2.35,13.32-8,21.18-17.13,5-5.86,7.54-8.85,7.44-12.09-.24-7.62-10.73-15-20.28-15.38C181.84,245.67,170.48,261.86,168.59,274.55Z"/><path class="cls-5" d="M190.27,292.58c-.45,3-1.6,10.73,3.15,14.94s12.59,2.34,16.46,1.32c12.86-3.41,31.32-15.84,28.62-29.23-1.73-8.54-11.53-15.05-20.29-15.38C203.52,263.69,192.16,279.89,190.27,292.58Z"/><path class="cls-6" d="M120.84,68l70.35,48.42L117.53,230.15,46.35,181.74"/><path class="cls-7" d="M406.37,76.85l-80.28,24.2Q346,167.21,365.82,233.38l77.8-23.4"/></g></g></svg>