<svg xmlns="http://www.w3.org/2000/svg" viewBox="0 0 627.79 472.98"><defs><style>.cls-1{fill:#3969a7;}.cls-2{fill:#d52d49;}.cls-3{fill:#d42d49;}.cls-4{fill:#469a56;}.cls-5,.cls-6{fill:#f1a539;}.cls-6{stroke:#1d1d1b;}.cls-6,.cls-7,.cls-9{stroke-miterlimit:10;}.cls-6,.cls-7{stroke-width:3px;}.cls-7{font-size:88.61px;fill:#fff;font-family:MyriadPro-Regular, Myriad Pro;}.cls-7,.cls-9{stroke:#fff;}.cls-8{letter-spacing:-0.04em;}.cls-9{fill:none;stroke-width:4px;}</style></defs><g id="Capa_2" data-name="Capa 2"><g id="Capa_1-2" data-name="Capa 1"><ellipse class="cls-1" cx="199.32" cy="197.3" rx="165.43" ry="156.04"/><ellipse class="cls-2" cx="440.52" cy="76.87" rx="71.98" ry="76.87"/><ellipse class="cls-3" cx="440.52" cy="380.94" rx="86.18" ry="92.04"/><ellipse class="cls-1" cx="564.77" cy="227.86" rx="63.03" ry="67.31"/><ellipse class="cls-4" cx="347.37" cy="416.06" rx="41.32" ry="44.12"/><ellipse class="cls-5" cx="508.41" cy="198.54" rx="27.46" ry="29.33"/><ellipse class="cls-3" cx="86.18" cy="353.34" rx="86.18" ry="92.04"/><path class="cls-6" d="M461.71,220.78c2.85,44.15-14.41,106.83-69.09,136.67-55.33,30.19-112.51,6.87-120.71,3.36l-134,47.9q19-53.73,38-107.46c-7.48-9.81-41.81-56.94-31.2-115.71C157.51,114.58,228.1,69.9,292,67,380.85,63,456.47,139.52,461.71,220.78Z"/><text class="cls-7" transform="translate(189.04 243.63) scale(0.99 1)">HEL<tspan class="cls-8" x="143.19" y="0">L</tspan><tspan x="181.56" y="0">O</tspan></text><path class="cls-9" d="M447.44,220.76c2.6,40.82-13.17,98.78-63.14,126.38-50.56,27.91-102.8,6.34-110.3,3.1l-122.47,44.3q17.37-49.69,34.75-99.37c-6.83-9.07-38.21-52.65-28.52-107C169.46,122.56,234,81.24,292.34,78.59,373.55,74.88,442.65,145.62,447.44,220.76Z"/></g></g></svg>